<?xml version="1.0" encoding="utf-8"?>
<!-- Generator: Adobe Illustrator 16.0.0, SVG Export Plug-In . SVG Version: 6.00 Build 0)  -->
<!DOCTYPE svg PUBLIC "-//W3C//DTD SVG 1.1//EN" "http://www.w3.org/Graphics/SVG/1.1/DTD/svg11.dtd">
<svg version="1.1" id="Layer_1" xmlns="http://www.w3.org/2000/svg" xmlns:xlink="http://www.w3.org/1999/xlink" x="0px" y="0px"
	 width="20.708px" height="12.271px" viewBox="0 0 20.708 12.271" enable-background="new 0 0 20.708 12.271" xml:space="preserve">
<g>
	<path fill="#010101" d="M20.705,6.665c0.001-0.391,0.002-0.777,0.002-1.155c0.001-0.362-0.001-0.721-0.002-1.078
		c0-0.077,0-0.155,0-0.232c0-0.001,0-0.001,0-0.002c-0.001-0.122,0-0.245-0.001-0.366c-0.013-1.545-0.755-2.273-2.33-2.276
		c-2.858-0.006-4.716-0.003-7.574,0c-0.231,0-0.462,0.026-0.73,0.043c0,1.582,0,3.132,0,4.705c-2.515,0-5.034,0-7.796,0
		c0-1.814,0-1.577,0-3.339c0-0.521,0.025-1.043-0.011-1.562C2.217,0.746,1.78,0.324,1.176,0.321
		c-0.636-0.003-1.012,0.331-1.127,0.95C0.016,1.448,0.004,1.629,0.004,1.809C0,5.769-0.001,7.729,0,11.689
		c0,0.194,0.03,0.389,0.046,0.582c0.778,0,1.491,0,2.284,0c0-1.094,0-2.144,0-3.2c5.752,0,10.421,0,16.187,0c0,1.089,0,2.137,0,3.2
		c0.766,0,1.436,0,2.19,0C20.708,9.433,20.708,8.756,20.705,6.665z"/>
	<path fill="#010101" d="M5.594,3.954c-0.565,0.027-0.87,0.357-0.859,0.793c0.011,0.452,0.384,0.763,0.951,0.767
		c1.041,0.008,2.082,0.008,3.123,0.001C9.466,5.51,9.742,5.244,9.755,4.588c0.013-0.657,0.009-1.314,0.002-1.972
		C9.75,1.99,9.467,1.648,8.967,1.64c-0.494-0.008-0.788,0.319-0.82,0.956C8.126,3.011,8.143,3.427,8.143,3.943
		C7.233,3.943,6.412,3.914,5.594,3.954z"/>
	<path fill="#010101" d="M5.971,3.364c0.956,0.013,1.685-0.708,1.698-1.678C7.68,0.798,6.913,0.018,6.01,0
		C5.126-0.017,4.332,0.75,4.306,1.646C4.278,2.583,5.022,3.351,5.971,3.364z"/>
</g>
</svg>
