<?xml version="1.0" encoding="utf-8"?>
<!-- Generator: Adobe Illustrator 16.0.0, SVG Export Plug-In . SVG Version: 6.00 Build 0)  -->
<!DOCTYPE svg PUBLIC "-//W3C//DTD SVG 1.1//EN" "http://www.w3.org/Graphics/SVG/1.1/DTD/svg11.dtd">
<svg version="1.1" id="Layer_1" xmlns="http://www.w3.org/2000/svg" xmlns:xlink="http://www.w3.org/1999/xlink" x="0px" y="0px"
	 width="8.788px" height="19.334px" viewBox="0 0 8.788 19.334" enable-background="new 0 0 8.788 19.334" xml:space="preserve">
<g>
	<path fill="#010101" d="M8.788,18.455c0,0.481-0.398,0.879-0.879,0.879h-7.03C0.397,19.334,0,18.937,0,18.455v-1.758
		c0-0.48,0.397-0.879,0.879-0.879h0.879v-5.272H0.879C0.397,10.546,0,10.147,0,9.667V7.909C0,7.429,0.397,7.03,0.879,7.03h5.272
		c0.48,0,0.879,0.398,0.879,0.879v7.909h0.879c0.48,0,0.879,0.398,0.879,0.879V18.455z M7.03,3.515c0,0.481-0.398,0.879-0.879,0.879
		H2.636c-0.48,0-0.878-0.398-0.878-0.879V0.879C1.758,0.398,2.155,0,2.636,0h3.516C6.632,0,7.03,0.398,7.03,0.879V3.515z"/>
</g>
</svg>
