<?xml version="1.0" encoding="utf-8"?>
<!-- Generator: Adobe Illustrator 16.0.0, SVG Export Plug-In . SVG Version: 6.00 Build 0)  -->
<!DOCTYPE svg PUBLIC "-//W3C//DTD SVG 1.1//EN" "http://www.w3.org/Graphics/SVG/1.1/DTD/svg11.dtd">
<svg version="1.1" id="Layer_1" xmlns="http://www.w3.org/2000/svg" xmlns:xlink="http://www.w3.org/1999/xlink" x="0px" y="0px"
	 width="17.474px" height="13.256px" viewBox="0 0 17.474 13.256" enable-background="new 0 0 17.474 13.256" xml:space="preserve">
<g>
	<path fill="#010101" d="M16.871,10.846c0,1.328-1.083,2.41-2.41,2.41H2.41c-1.328,0-2.41-1.082-2.41-2.41H16.871z M13.858,7.23
		h-0.603v0.301c0,1.158-0.95,2.109-2.108,2.109H4.519c-1.158,0-2.109-0.951-2.109-2.109V0.603C2.41,0.273,2.683,0,3.013,0h10.846
		c1.996,0,3.615,1.619,3.615,3.615C17.474,5.611,15.854,7.23,13.858,7.23z M13.858,1.808h-0.603v3.615h0.603
		c0.998,0,1.808-0.81,1.808-1.808S14.856,1.808,13.858,1.808z"/>
</g>
</svg>
