<?xml version="1.0" encoding="utf-8"?>
<!-- Generator: Adobe Illustrator 16.0.0, SVG Export Plug-In . SVG Version: 6.00 Build 0)  -->
<!DOCTYPE svg PUBLIC "-//W3C//DTD SVG 1.1//EN" "http://www.w3.org/Graphics/SVG/1.1/DTD/svg11.dtd">
<svg version="1.1" id="Layer_1" xmlns="http://www.w3.org/2000/svg" xmlns:xlink="http://www.w3.org/1999/xlink" x="0px" y="0px"
	 width="24.061px" height="13.735px" viewBox="0 0 24.061 13.735" enable-background="new 0 0 24.061 13.735" xml:space="preserve">
<g>
	<g>
		<path fill="#010101" d="M22.377,4.259c-0.896,0.041-1.828,0.074-2.705,0.114c0,1.094,0,1.901,0,3.053c-5.275,0-9.809,0-15.044,0
			c0-1.061,0-1.836,0-3.01c-0.888-0.06-2.022-0.113-2.941-0.175c0-1.128-0.006-2.199,0.002-3.27C1.696-0.049,2.451,0.019,3.13,0.018
			c4.195-0.006,8.391-0.003,12.585-0.004c1.76,0,3.52-0.014,5.277-0.014c1.072,0,1.461,0.399,1.396,1.438
			C22.333,2.33,22.377,3.228,22.377,4.259z"/>
		<path fill="#010101" d="M24.061,12.11c-1.16,0-2.189,0-3.286,0c-0.059,0.566-0.108,1.044-0.169,1.625c-0.519,0-1.027,0-1.576,0
			c-0.064-0.531-0.121-1.012-0.188-1.563c-4.542,0-9.033,0-13.605,0c-0.067,0.503-0.132,0.979-0.21,1.562c-0.502,0-1.004,0-1.578,0
			c-0.047-0.521-0.091-1.003-0.146-1.624c-1.086,0-2.149,0-3.302,0c0-2.333,0-4.522,0-6.803c1.113,0,2.167,0,3.353,0
			c0,1.082,0,2.102,0,3.223c5.794,0,11.458,0,17.287,0c0-1.037,0-2.093,0-3.233c1.221,0,2.277,0,3.422,0
			C24.061,7.539,24.061,9.729,24.061,12.11z"/>
	</g>
</g>
</svg>
