<?xml version="1.0" encoding="utf-8"?>
<!-- Generator: Adobe Illustrator 16.0.0, SVG Export Plug-In . SVG Version: 6.00 Build 0)  -->
<!DOCTYPE svg PUBLIC "-//W3C//DTD SVG 1.1//EN" "http://www.w3.org/Graphics/SVG/1.1/DTD/svg11.dtd">
<svg version="1.1" id="Layer_1" xmlns="http://www.w3.org/2000/svg" xmlns:xlink="http://www.w3.org/1999/xlink" x="0px" y="0px"
	 width="14.074px" height="16.873px" viewBox="0 0 14.074 16.873" enable-background="new 0 0 14.074 16.873" xml:space="preserve">
<path fill="#010101" d="M14.074,6.089c0-1.598-1.396-2.924-3.232-3.193C10.632,1.268,8.966,0,6.942,0
	c-1.931,0-3.534,1.154-3.86,2.674C1.32,2.992,0,4.29,0,5.843C0,6.837,0.541,7.726,1.392,8.32C1.101,8.774,0.935,9.291,0.935,9.84
	c0,1.792,1.756,3.245,3.922,3.245c0.207,0,0.411-0.014,0.609-0.039c-0.145,1.383-0.374,3.466-0.454,3.626
	c-0.121,0.241,3.407,0.299,3.354-0.014c-0.035-0.198-0.357-2.054-0.525-3.613c0.351,0.085,0.721,0.131,1.104,0.131
	c2.167,0,3.923-1.452,3.923-3.244c0-0.454-0.113-0.886-0.316-1.277C13.478,8.061,14.074,7.133,14.074,6.089z"/>
</svg>
