<?xml version="1.0" encoding="utf-8"?>
<!-- Generator: Adobe Illustrator 16.0.0, SVG Export Plug-In . SVG Version: 6.00 Build 0)  -->
<!DOCTYPE svg PUBLIC "-//W3C//DTD SVG 1.1//EN" "http://www.w3.org/Graphics/SVG/1.1/DTD/svg11.dtd">
<svg version="1.1" id="Layer_1" xmlns="http://www.w3.org/2000/svg" xmlns:xlink="http://www.w3.org/1999/xlink" x="0px" y="0px"
	 width="22.81px" height="15.206px" viewBox="0 0 22.81 15.206" enable-background="new 0 0 22.81 15.206" xml:space="preserve">
<g>
	<path fill="#010101" d="M22.81,12.925v1.141c0,0.63-0.855,1.141-1.9,1.141H1.901C0.855,15.206,0,14.695,0,14.065v-1.141h1.901
		h19.008H22.81z M3.041,10.264V1.9c0-1.046,0.856-1.9,1.901-1.9h12.925c1.045,0,1.901,0.854,1.901,1.9v8.363
		c0,1.046-0.856,1.901-1.901,1.901H4.942C3.897,12.165,3.041,11.31,3.041,10.264z M4.562,10.264c0,0.203,0.178,0.381,0.38,0.381
		h12.925c0.202,0,0.38-0.178,0.38-0.381V1.9c0-0.202-0.178-0.38-0.38-0.38H4.942c-0.202,0-0.38,0.178-0.38,0.38V10.264z
		 M12.545,13.876c0-0.107-0.083-0.19-0.19-0.19h-1.9c-0.107,0-0.19,0.083-0.19,0.19c0,0.106,0.083,0.189,0.19,0.189h1.9
		C12.462,14.065,12.545,13.982,12.545,13.876z"/>
</g>
</svg>
